<svg width="865" height="120" viewBox="0 0 865 120" fill="none" xmlns="http://www.w3.org/2000/svg"><path fill-rule="evenodd" clip-rule="evenodd" d="M39.5282 42.4182L12.3925 16.8036C11.9666 16.3777 11.4798 16.1343 11.1148 16.0126C10.8714 15.9518 10.628 15.9518 10.3847 16.0126C10.1413 16.1343 9.89792 16.256 9.65455 16.4994C9.16781 16.9861 8.80276 17.777 8.55939 18.8114L0.284811 53.2482C-0.141086 55.0126 -0.0802436 57.0813 0.406496 58.9674C0.893236 60.8535 1.68419 62.4962 2.77935 63.5306L29.9151 89.2061C30.341 89.632 30.8277 89.8753 31.1928 89.997C31.4362 90.0579 31.6795 90.0579 31.9229 89.9362C32.1663 89.8753 32.4096 89.6928 32.653 89.4494C33.1398 88.9627 33.5048 88.1717 33.7482 87.1374L42.0227 52.7614C42.4486 50.997 42.327 48.9284 41.9011 47.0423C41.4143 45.0953 40.6234 43.4526 39.5282 42.4182ZM87.7763 34.8738L51.9401 45.3995C50.5407 45.8254 49.0196 46.9206 47.7419 48.3808C46.4642 49.841 45.4299 51.6663 45.004 53.4307L36.7295 87.8067C36.4861 88.841 36.4861 89.7536 36.6686 90.3621C36.7903 90.6663 36.912 90.9705 37.0945 91.153C37.277 91.3356 37.4596 91.4572 37.7638 91.5181C38.1897 91.6398 38.6764 91.5789 39.2848 91.3964L75.1211 80.8707C76.5204 80.4448 78.0415 79.3496 79.3192 77.8894C80.5969 76.4292 81.6312 74.6039 82.0571 72.8395L90.3317 38.4635C90.5751 37.4292 90.5751 36.5165 90.3925 35.9081C90.2708 35.6039 90.1491 35.2997 89.9666 35.1171C89.7841 34.9346 89.6016 34.8129 89.2974 34.7521C88.8715 34.6912 88.3847 34.6912 87.7763 34.8738ZM87.7154 28.1811L60.7014 2.38391C59.6062 1.34958 57.9026 0.619475 56.0774 0.254421C54.1304 -0.110634 52.1226 -0.110634 50.3582 0.436948H50.2365L16.4081 10.476C15.3737 10.7802 14.6436 11.2061 14.1569 11.6928C13.9135 11.9362 13.7918 12.1795 13.6702 12.4838C13.6093 12.7271 13.6093 12.9705 13.731 13.2139C13.8527 13.5789 14.0961 14.0048 14.5828 14.4916L41.5969 40.1671C42.692 41.2014 44.3956 41.9315 46.2817 42.2966C48.2287 42.6616 50.2365 42.6616 52.0009 42.114L52.1226 42.0532L85.951 32.0142C86.9853 31.71 87.7155 31.2841 88.2022 30.7973C88.4456 30.554 88.6281 30.3106 88.6889 30.0064C88.7498 29.763 88.7498 29.5196 88.6889 29.2763V29.2154C88.4456 28.9721 88.1413 28.5462 87.7154 28.1811ZM55.7123 19.9674C57.5984 21.7926 57.1117 23.8613 54.6171 24.5914C52.1226 25.3215 48.5329 24.4697 46.6468 22.6444C44.7607 20.8192 45.2474 18.7505 47.7419 18.0204C50.2365 17.2903 53.8262 18.1421 55.7123 19.9674ZM73.7825 67.242C76.2771 66.5118 77.859 67.9721 77.2505 70.5274C76.6421 73.0828 74.0867 75.7599 71.5922 76.49C69.0976 77.2201 67.5157 75.7599 68.185 73.2045C68.7326 70.6491 71.288 67.9721 73.7825 67.242ZM49.6281 74.2997C52.1226 73.5696 53.6437 75.0298 53.0352 77.5852C52.4268 80.1405 49.8714 82.8176 47.3769 83.5477C44.8823 84.2778 43.3613 82.8176 43.9697 80.2622C44.5781 77.7068 47.1335 75.0906 49.6281 74.2997ZM55.5298 49.841C58.0243 49.1109 59.6062 50.5711 58.9978 53.1265C58.3894 55.6819 55.834 58.359 53.3394 59.0891C50.8449 59.8192 49.263 58.359 49.9323 55.8036C50.4799 53.2482 53.0352 50.5711 55.5298 49.841ZM79.6842 42.7224C82.1788 41.9923 83.7607 43.4526 83.1523 46.0079C82.5438 48.5633 79.9885 51.2404 77.4939 51.9705C74.9994 52.7006 73.4175 51.2404 74.0259 48.685C74.6343 46.1296 77.1289 43.4526 79.6842 42.7224ZM64.6562 58.5415C67.1507 57.8114 68.7326 59.2716 68.1242 61.827C67.5157 64.3824 64.9604 67.0594 62.4658 67.7895C59.9713 68.5196 58.3894 67.0594 59.0586 64.504C59.6062 61.9487 62.1616 59.2716 64.6562 58.5415ZM28.4549 69.2498C30.341 71.0142 31.3753 74.543 30.7669 77.1593C30.1585 79.7147 28.0898 80.3231 26.2037 78.4978C24.3176 76.6725 23.2833 73.1437 23.8917 70.5883C24.5001 68.0329 26.5688 67.4245 28.4549 69.2498ZM10.1413 51.9705C12.0274 53.7349 13.0617 57.2638 12.4533 59.8192C11.8449 62.3746 9.77624 62.983 7.89012 61.1577C6.004 59.3933 4.96968 55.8644 5.57811 53.309C6.24737 50.7536 8.25518 50.1452 10.1413 51.9705ZM16.043 27.451C17.9291 29.2763 18.9635 32.8051 18.355 35.3605C17.7466 37.9159 15.678 38.5243 13.7918 36.699C11.9057 34.9346 10.8714 31.4058 11.4798 28.7895C12.0883 26.2341 14.1569 25.6257 16.043 27.451ZM34.2958 44.7302C36.1819 46.5555 37.2162 50.0844 36.6078 52.6398C35.9993 55.1951 33.9307 55.8036 32.0446 53.9783C30.1585 52.2139 29.1241 48.685 29.7326 46.0688C30.4018 43.5742 32.4096 42.9658 34.2958 44.7302Z" fill="url('#a')"/><path fill-rule="evenodd" clip-rule="evenodd" d="M146.731 117.132L134.319 81.904C133.832 80.5046 132.676 79.1052 131.155 77.8884C129.634 76.6715 127.748 75.7589 125.984 75.4547L91.1819 69.0054C90.1476 68.8228 89.235 68.8228 88.6265 69.0662C88.3223 69.1879 88.0789 69.3096 87.8356 69.553C87.653 69.7355 87.5922 69.9789 87.5314 70.2222C87.4705 70.6481 87.5314 71.1349 87.7139 71.7433L100.126 106.971C100.613 108.37 101.769 109.831 103.29 110.987C104.811 112.204 106.636 113.116 108.461 113.42L143.263 119.87C144.297 120.052 145.21 120.052 145.818 119.809C146.123 119.687 146.366 119.505 146.549 119.322C146.731 119.14 146.792 118.896 146.853 118.653C146.974 118.227 146.914 117.679 146.731 117.132ZM149.773 116.037L137.24 80.8697C136.753 79.4703 136.753 77.645 137.179 75.7589C137.605 73.8728 138.457 71.9867 139.673 70.5873L162.611 43.6949C163.341 42.8431 164.01 42.3564 164.68 42.113C164.984 41.9913 165.288 41.9305 165.592 41.9913C165.836 42.0522 166.018 42.113 166.262 42.2955C166.566 42.5998 166.87 43.0256 167.052 43.5732L179.586 78.7402C180.073 80.1395 180.073 82.0257 179.647 83.8509C179.221 85.7371 178.369 87.6232 177.152 89.0225L154.215 115.915C153.485 116.706 152.815 117.253 152.146 117.497C151.842 117.618 151.538 117.618 151.233 117.618C150.99 117.558 150.808 117.497 150.564 117.314C150.199 117.071 149.956 116.645 149.773 116.037ZM127.505 72.5951L90.756 65.7199C90.1476 65.5982 89.7217 65.4157 89.3566 65.1115C89.1741 64.9289 88.9916 64.7464 88.9307 64.503C88.8091 64.2597 88.8091 63.9555 88.8699 63.5904C88.9916 62.9211 89.4175 62.1302 90.0868 61.3392L113.146 34.4469C114.302 33.0475 116.006 31.9523 117.831 31.2222C119.595 30.4921 121.421 30.1879 122.881 30.4921L159.569 37.3673C160.177 37.489 160.664 37.6715 160.968 37.9757C161.151 38.1583 161.272 38.3408 161.394 38.5842C161.516 38.8275 161.516 39.1317 161.455 39.4968C161.333 40.1661 160.968 40.957 160.238 41.748L137.301 68.7012C136.145 70.1005 134.38 71.1957 132.616 71.9258C130.73 72.5342 128.904 72.8385 127.505 72.5951ZM126.288 67.0584C128.843 67.5452 132.311 66.3283 134.015 64.3205C135.719 62.3127 134.988 60.3049 132.433 59.8182C129.878 59.3314 126.41 60.5483 124.706 62.5561C123.003 64.5639 123.733 66.5717 126.288 67.0584ZM101.586 62.4344C104.141 62.9211 107.609 61.7043 109.313 59.6965C111.017 57.6887 110.286 55.6809 107.731 55.1941C105.176 54.7074 101.708 55.9242 100.004 57.932C98.3005 59.9398 98.9698 61.9477 101.586 62.4344ZM117.892 43.269C120.447 43.7558 123.915 42.5389 125.619 40.5311C127.322 38.5233 126.592 36.5155 124.037 36.0288C121.481 35.542 118.013 36.7589 116.31 38.7667C114.606 40.7745 115.336 42.7823 117.892 43.269ZM142.655 47.893C145.21 48.3798 148.678 47.1629 150.382 45.1551C152.085 43.1473 151.355 41.1395 148.8 40.6528C146.244 40.1661 142.776 41.3829 141.073 43.3907C139.369 45.3985 140.099 47.4063 142.655 47.893ZM134.502 57.567C137.057 58.0537 140.525 56.8369 142.229 54.8291C143.932 52.8213 143.202 50.8135 140.647 50.3267C138.031 49.84 134.623 51.0569 132.92 53.0647C131.216 55.0725 131.946 57.0803 134.502 57.567ZM109.739 52.943C112.294 53.4297 115.762 52.2129 117.466 50.2051C119.169 48.1973 118.439 46.1895 115.884 45.7027C113.329 45.216 109.861 46.4328 108.157 48.4406C106.453 50.4484 107.183 52.4562 109.739 52.943ZM155.31 83.425C156.162 85.9196 158.291 86.2846 159.995 84.2768C161.698 82.269 162.368 78.6793 161.455 76.1848C160.603 73.6902 158.474 73.3252 156.77 75.333C155.067 77.3408 154.397 80.9913 155.31 83.425ZM142.898 81.1739C143.811 83.6684 145.879 84.0335 147.583 82.0257C149.286 80.0179 149.956 76.4282 149.104 73.9336C148.191 71.4391 146.123 71.074 144.419 73.0818C142.655 75.0896 141.985 78.7402 142.898 81.1739ZM167.661 85.737C168.513 88.2316 170.642 88.5966 172.346 86.5888C174.049 84.581 174.719 80.9913 173.867 78.4968C172.954 76.0023 170.886 75.6372 169.182 77.645C167.478 79.6528 166.809 83.2425 167.661 85.737ZM130.06 85.737C130.912 88.2316 129.574 89.8135 126.957 89.3268C124.402 88.84 121.603 86.4672 120.691 83.9726C119.839 81.4781 121.177 79.8962 123.793 80.3829C126.41 80.8697 129.208 83.2425 130.06 85.737ZM113.694 104.842C114.545 107.336 113.207 108.918 110.591 108.431C107.974 107.945 105.237 105.572 104.324 103.077C103.472 100.583 104.811 99.0007 107.427 99.4874C110.043 99.9742 112.842 102.408 113.694 104.842Z" fill="url('#b')"/><path d="M236.119 17.4209C247.872 17.4209 257.679 21.4683 265.618 29.6411C273.558 37.8138 277.449 47.9324 277.449 59.9968C277.449 72.0613 273.48 82.1799 265.618 90.3526C257.679 98.5254 247.872 102.573 236.119 102.573H202.105V17.4209H236.119ZM236.119 83.8145C242.813 83.8145 248.261 81.6351 252.464 77.2763C256.667 72.9175 258.691 67.1577 258.691 59.919C258.691 52.6803 256.59 46.9205 252.464 42.5617C248.261 38.2029 242.813 36.0236 236.119 36.0236H221.564V83.6588H236.119V83.8145Z" fill="url('#c')"/><path d="M288.423 17.4209H307.881V102.495H288.423V17.4209Z" fill="url('#d')"/><path d="M363.066 104.208C350.379 104.208 339.794 100.005 331.387 91.5212C322.981 83.0371 318.778 72.5294 318.778 59.9979C318.778 47.4664 322.981 36.9586 331.387 28.4745C339.794 19.9905 350.301 15.7874 363.066 15.7874C370.694 15.7874 377.7 17.5776 384.238 21.0802C390.698 24.5828 395.835 29.4086 399.571 35.4797L382.759 45.2091C380.891 41.8622 378.244 39.2936 374.742 37.5034C371.239 35.7132 367.347 34.7792 363.066 34.7792C355.516 34.7792 349.523 37.1143 345.009 41.7065C340.494 46.2988 338.237 52.4478 338.237 60.0757C338.237 67.7036 340.494 73.7747 345.009 78.4449C349.523 83.0371 355.516 85.3722 363.066 85.3722C367.347 85.3722 371.239 84.4382 374.82 82.5701C378.322 80.7021 380.969 78.1335 382.759 74.9423L399.571 84.6717C395.913 90.7429 390.854 95.5686 384.393 99.0712C377.855 102.418 370.772 104.208 363.066 104.208Z" fill="url('#e')"/><path d="M428.14 83.8145H462.154V102.573H408.681V17.4209H461.532V36.1792H428.062V50.2674H458.418V68.7144H428.062V83.8145H428.14Z" fill="url('#f')"/><path d="M560.614 17.4209V36.1792H538.743V102.573H519.284V36.1014H497.412V17.4209H560.614Z" fill="url('#g')"/><path d="M586.533 102.495L563.027 17.4209H583.42L598.131 76.965L614.554 17.4209H630.354L646.778 76.965L661.489 17.4209H681.882L658.453 102.495H636.348L622.493 52.2912L608.638 102.495H586.533Z" fill="url('#h')"/><path d="M690.443 17.4209H709.902V102.495H690.443V17.4209Z" fill="url('#i')"/><path d="M765.088 104.208C752.401 104.208 741.815 100.005 733.409 91.5212C725.003 83.0371 720.8 72.5294 720.8 59.9979C720.8 47.4664 725.003 36.9586 733.409 28.4745C741.815 19.9905 752.323 15.7874 765.088 15.7874C772.716 15.7874 779.721 17.5776 786.26 21.0802C792.72 24.5828 797.857 29.4086 801.593 35.4797L784.781 45.1313C782.913 41.7844 780.266 39.2158 776.764 37.4256C773.261 35.6354 769.369 34.7014 765.088 34.7014C757.538 34.7014 751.545 37.0364 747.03 41.6287C742.516 46.221 740.259 52.37 740.259 59.9979C740.259 67.6257 742.516 73.6969 747.03 78.367C751.545 82.9593 757.538 85.2944 765.088 85.2944C769.369 85.2944 773.261 84.3604 776.842 82.4923C780.344 80.6242 782.991 78.0557 784.781 74.8644L801.593 84.5938C797.935 90.665 792.876 95.4908 786.415 98.9934C779.877 102.418 772.794 104.208 765.088 104.208Z" fill="url('#j')"/><path d="M830.161 83.8145H864.175V102.573H810.702V17.4209H863.552V36.1792H830.083V50.2674H860.438V68.7144H830.083V83.8145H830.161Z" fill="url('#k')"/><defs><linearGradient id="a" x1="101.585" y1="25.1595" x2="17.0003" y2="-9.11445" gradientUnits="userSpaceOnUse"><stop stop-color="#42E297"/><stop offset="1" stop-color="#3CB9B4"/></linearGradient><linearGradient id="b" x1="139.031" y1="-4.1675" x2="49.1111" y2="77.9586" gradientUnits="userSpaceOnUse"><stop stop-color="#4528FB"/><stop offset="1" stop-color="#9E8EFF"/></linearGradient><linearGradient id="c" x1="286.657" y1="40.8141" x2="214.225" y2="14.5411" gradientUnits="userSpaceOnUse"><stop stop-color="#42E297"/><stop offset="1" stop-color="#3CB9B4"/></linearGradient><linearGradient id="d" x1="310.26" y1="40.7927" x2="289.276" y2="38.8252" gradientUnits="userSpaceOnUse"><stop stop-color="#42E297"/><stop offset="1" stop-color="#3CB9B4"/></linearGradient><linearGradient id="e" x1="409.445" y1="40.0786" x2="332.37" y2="11.2083" gradientUnits="userSpaceOnUse"><stop stop-color="#42E297"/><stop offset="1" stop-color="#3CB9B4"/></linearGradient><linearGradient id="f" x1="468.689" y1="40.8141" x2="414.135" y2="26.7702" gradientUnits="userSpaceOnUse"><stop stop-color="#42E297"/><stop offset="1" stop-color="#3CB9B4"/></linearGradient><linearGradient id="g" x1="532.634" y1="-15.3977" x2="453.892" y2="36.3503" gradientUnits="userSpaceOnUse"><stop stop-color="#593EFF"/><stop offset="1" stop-color="#7661FA"/></linearGradient><linearGradient id="h" x1="629.264" y1="-15.3677" x2="545.461" y2="88.2947" gradientUnits="userSpaceOnUse"><stop stop-color="#593EFF"/><stop offset="1" stop-color="#7661FA"/></linearGradient><linearGradient id="i" x1="701.287" y1="-15.3677" x2="667.941" y2="-8.61454" gradientUnits="userSpaceOnUse"><stop stop-color="#593EFF"/><stop offset="1" stop-color="#7661FA"/></linearGradient><linearGradient id="j" x1="765.825" y1="-18.2912" x2="678.712" y2="52.1863" gradientUnits="userSpaceOnUse"><stop stop-color="#593EFF"/><stop offset="1" stop-color="#7661FA"/></linearGradient><linearGradient id="k" x1="840.502" y1="-15.3977" x2="767.635" y2="25.117" gradientUnits="userSpaceOnUse"><stop stop-color="#593EFF"/><stop offset="1" stop-color="#7661FA"/></linearGradient></defs></svg>